<?xml version="1.0" encoding="UTF-8" standalone="no"?>
<!-- Created with Inkscape (http://www.inkscape.org/) -->

<svg
   xmlns:dc="http://purl.org/dc/elements/1.1/"
   xmlns:cc="http://creativecommons.org/ns#"
   xmlns:rdf="http://www.w3.org/1999/02/22-rdf-syntax-ns#"
   xmlns:svg="http://www.w3.org/2000/svg"
   xmlns="http://www.w3.org/2000/svg"
   xmlns:xlink="http://www.w3.org/1999/xlink"
   xmlns:sodipodi="http://sodipodi.sourceforge.net/DTD/sodipodi-0.dtd"
   xmlns:inkscape="http://www.inkscape.org/namespaces/inkscape"
   width="80mm"
   height="80mm"
   viewBox="0 0 80 80"
   version="1.1"
   id="svg3928"
   inkscape:version="0.92.2 (5c3e80d, 2017-08-06)"
   sodipodi:docname="git.svg">
  <defs
     id="defs3922">
    <linearGradient
       inkscape:collect="always"
       id="linearGradient4802">
      <stop
         style="stop-color:#a580cd;stop-opacity:1;"
         offset="0"
         id="stop4798" />
      <stop
         style="stop-color:#a455d4;stop-opacity:1"
         offset="1"
         id="stop4800" />
    </linearGradient>
    <linearGradient
       inkscape:collect="always"
       xlink:href="#linearGradient4802"
       id="linearGradient4804"
       x1="12.771326"
       y1="178.6777"
       x2="301.69937"
       y2="348.42099"
       gradientUnits="userSpaceOnUse" />
    <linearGradient
       inkscape:collect="always"
       xlink:href="#linearGradient4802"
       id="linearGradient8441"
       gradientUnits="userSpaceOnUse"
       x1="12.771326"
       y1="178.6777"
       x2="301.69937"
       y2="348.42099" />
    <linearGradient
       inkscape:collect="always"
       xlink:href="#linearGradient4802"
       id="linearGradient8443"
       gradientUnits="userSpaceOnUse"
       x1="12.771326"
       y1="178.6777"
       x2="301.69937"
       y2="348.42099" />
    <linearGradient
       inkscape:collect="always"
       xlink:href="#linearGradient4802"
       id="linearGradient8445"
       gradientUnits="userSpaceOnUse"
       x1="12.771326"
       y1="178.6777"
       x2="301.69937"
       y2="348.42099" />
    <linearGradient
       inkscape:collect="always"
       xlink:href="#linearGradient4802"
       id="linearGradient8447"
       gradientUnits="userSpaceOnUse"
       x1="12.771326"
       y1="178.6777"
       x2="301.69937"
       y2="348.42099" />
    <linearGradient
       inkscape:collect="always"
       xlink:href="#linearGradient4802"
       id="linearGradient8449"
       gradientUnits="userSpaceOnUse"
       x1="12.771326"
       y1="178.6777"
       x2="301.69937"
       y2="348.42099" />
    <linearGradient
       inkscape:collect="always"
       xlink:href="#linearGradient4802"
       id="linearGradient8451"
       gradientUnits="userSpaceOnUse"
       x1="12.771326"
       y1="178.6777"
       x2="301.69937"
       y2="348.42099" />
    <linearGradient
       inkscape:collect="always"
       xlink:href="#linearGradient4802"
       id="linearGradient8453"
       gradientUnits="userSpaceOnUse"
       x1="12.771326"
       y1="178.6777"
       x2="301.69937"
       y2="348.42099" />
    <linearGradient
       inkscape:collect="always"
       xlink:href="#linearGradient4802"
       id="linearGradient8455"
       gradientUnits="userSpaceOnUse"
       x1="12.771326"
       y1="178.6777"
       x2="301.69937"
       y2="348.42099" />
    <linearGradient
       inkscape:collect="always"
       xlink:href="#linearGradient4802"
       id="linearGradient8457"
       gradientUnits="userSpaceOnUse"
       x1="12.771326"
       y1="178.6777"
       x2="301.69937"
       y2="348.42099" />
    <linearGradient
       inkscape:collect="always"
       xlink:href="#linearGradient4802"
       id="linearGradient8459"
       gradientUnits="userSpaceOnUse"
       x1="12.771326"
       y1="178.6777"
       x2="301.69937"
       y2="348.42099" />
    <linearGradient
       inkscape:collect="always"
       xlink:href="#linearGradient4802"
       id="linearGradient8461"
       gradientUnits="userSpaceOnUse"
       x1="12.771326"
       y1="178.6777"
       x2="301.69937"
       y2="348.42099" />
    <linearGradient
       inkscape:collect="always"
       xlink:href="#linearGradient4802"
       id="linearGradient8463"
       gradientUnits="userSpaceOnUse"
       x1="12.771326"
       y1="178.6777"
       x2="301.69937"
       y2="348.42099" />
    <linearGradient
       inkscape:collect="always"
       xlink:href="#linearGradient4802"
       id="linearGradient8465"
       gradientUnits="userSpaceOnUse"
       x1="12.771326"
       y1="178.6777"
       x2="301.69937"
       y2="348.42099" />
    <linearGradient
       inkscape:collect="always"
       xlink:href="#linearGradient4802"
       id="linearGradient8467"
       gradientUnits="userSpaceOnUse"
       x1="12.771326"
       y1="178.6777"
       x2="301.69937"
       y2="348.42099" />
    <linearGradient
       inkscape:collect="always"
       xlink:href="#linearGradient4802"
       id="linearGradient8469"
       gradientUnits="userSpaceOnUse"
       x1="12.771326"
       y1="178.6777"
       x2="301.69937"
       y2="348.42099" />
    <linearGradient
       inkscape:collect="always"
       xlink:href="#linearGradient4802"
       id="linearGradient8471"
       gradientUnits="userSpaceOnUse"
       x1="12.771326"
       y1="178.6777"
       x2="301.69937"
       y2="348.42099" />
    <linearGradient
       inkscape:collect="always"
       xlink:href="#linearGradient4802"
       id="linearGradient8473"
       gradientUnits="userSpaceOnUse"
       x1="12.771326"
       y1="178.6777"
       x2="301.69937"
       y2="348.42099" />
    <linearGradient
       inkscape:collect="always"
       xlink:href="#linearGradient4802"
       id="linearGradient8475"
       gradientUnits="userSpaceOnUse"
       x1="12.771326"
       y1="178.6777"
       x2="301.69937"
       y2="348.42099" />
    <linearGradient
       inkscape:collect="always"
       xlink:href="#linearGradient4802"
       id="linearGradient8477"
       gradientUnits="userSpaceOnUse"
       x1="12.771326"
       y1="178.6777"
       x2="301.69937"
       y2="348.42099" />
    <linearGradient
       inkscape:collect="always"
       xlink:href="#linearGradient4802"
       id="linearGradient8479"
       gradientUnits="userSpaceOnUse"
       x1="12.771326"
       y1="178.6777"
       x2="301.69937"
       y2="348.42099" />
    <linearGradient
       inkscape:collect="always"
       xlink:href="#linearGradient4802"
       id="linearGradient8481"
       gradientUnits="userSpaceOnUse"
       x1="12.771326"
       y1="178.6777"
       x2="301.69937"
       y2="348.42099" />
    <linearGradient
       inkscape:collect="always"
       xlink:href="#linearGradient4802"
       id="linearGradient8483"
       gradientUnits="userSpaceOnUse"
       x1="12.771326"
       y1="178.6777"
       x2="301.69937"
       y2="348.42099" />
    <linearGradient
       inkscape:collect="always"
       xlink:href="#linearGradient4802"
       id="linearGradient8485"
       gradientUnits="userSpaceOnUse"
       x1="12.771326"
       y1="178.6777"
       x2="301.69937"
       y2="348.42099" />
    <linearGradient
       inkscape:collect="always"
       xlink:href="#linearGradient4802"
       id="linearGradient8487"
       gradientUnits="userSpaceOnUse"
       x1="12.771326"
       y1="178.6777"
       x2="301.69937"
       y2="348.42099" />
    <linearGradient
       inkscape:collect="always"
       xlink:href="#linearGradient4802"
       id="linearGradient8489"
       gradientUnits="userSpaceOnUse"
       x1="12.771326"
       y1="178.6777"
       x2="301.69937"
       y2="348.42099" />
  </defs>
  <sodipodi:namedview
     id="base"
     pagecolor="#ffffff"
     bordercolor="#666666"
     borderopacity="1.0"
     inkscape:pageopacity="0.0"
     inkscape:pageshadow="2"
     inkscape:zoom="1.5"
     inkscape:cx="140.49594"
     inkscape:cy="145.29786"
     inkscape:document-units="mm"
     inkscape:current-layer="layer1"
     showgrid="false"
     inkscape:showpageshadow="false"
     inkscape:window-width="1920"
     inkscape:window-height="1001"
     inkscape:window-x="-9"
     inkscape:window-y="-9"
     inkscape:window-maximized="1" />
  <metadata
     id="metadata3925">
    <rdf:RDF>
      <cc:Work
         rdf:about="">
        <dc:format>image/svg+xml</dc:format>
        <dc:type
           rdf:resource="http://purl.org/dc/dcmitype/StillImage" />
        <dc:title />
      </cc:Work>
    </rdf:RDF>
  </metadata>
  <g
     inkscape:label="Layer 1"
     inkscape:groupmode="layer"
     id="layer1"
     transform="translate(0,-217)">
    <g
       id="g1462"
       transform="matrix(0.14682707,0,0,0.14519246,7.8055985,225.16388)"
       style="fill:url(#linearGradient4804);fill-opacity:1">
      <g
         id="g1398"
         style="fill:url(#linearGradient8459);fill-opacity:1">
        <g
           id="g1396"
           style="fill:url(#linearGradient8457);fill-opacity:1">
          <path
             id="path1380"
             d="m 158.173,352.599 c -3.049,0.568 -4.381,1.999 -3.999,4.281 0.38,2.283 2.093,3.046 5.138,2.283 3.049,-0.76 4.38,-2.095 3.997,-3.997 -0.378,-2.092 -2.091,-2.95 -5.136,-2.567 z"
             inkscape:connector-curvature="0"
             style="fill:url(#linearGradient8441);fill-opacity:1" />
          <path
             id="path1382"
             d="m 141.898,354.885 c -3.046,0 -4.568,1.041 -4.568,3.139 0,2.474 1.619,3.518 4.853,3.138 3.046,0 4.57,-1.047 4.57,-3.138 0,-2.471 -1.619,-3.522 -4.855,-3.139 z"
             inkscape:connector-curvature="0"
             style="fill:url(#linearGradient8443);fill-opacity:1" />
          <path
             id="path1384"
             d="m 119.629,354.022 c -0.76,2.095 0.478,3.519 3.711,4.284 2.855,1.137 4.664,0.568 5.424,-1.714 0.572,-2.091 -0.666,-3.61 -3.711,-4.568 -2.856,-0.759 -4.663,-0.102 -5.424,1.998 z"
             inkscape:connector-curvature="0"
             style="fill:url(#linearGradient8445);fill-opacity:1" />
          <path
             id="path1386"
             d="M 414.41,24.123 C 398.326,8.042 378.964,0 356.309,0 H 82.225 C 59.577,0 40.208,8.042 24.123,24.123 8.042,40.207 0,59.576 0,82.225 v 274.088 c 0,22.65 8.042,42.017 24.123,58.098 16.084,16.084 35.454,24.126 58.102,24.126 h 63.953 c 4.184,0 7.327,-0.144 9.42,-0.424 2.092,-0.288 4.184,-1.526 6.279,-3.717 2.096,-2.187 3.14,-5.376 3.14,-9.562 0,-0.568 -0.05,-7.046 -0.144,-19.417 -0.097,-12.375 -0.144,-22.176 -0.144,-29.41 l -6.567,1.143 c -4.187,0.76 -9.469,1.095 -15.846,0.999 -6.374,-0.096 -12.99,-0.76 -19.841,-1.998 -6.855,-1.239 -13.229,-4.093 -19.13,-8.562 -5.898,-4.477 -10.085,-10.328 -12.56,-17.559 l -2.856,-6.571 c -1.903,-4.373 -4.899,-9.229 -8.992,-14.554 -4.093,-5.332 -8.232,-8.949 -12.419,-10.852 l -1.999,-1.428 c -1.331,-0.951 -2.568,-2.098 -3.711,-3.429 -1.141,-1.335 -1.997,-2.669 -2.568,-3.997 -0.571,-1.335 -0.097,-2.43 1.427,-3.289 1.524,-0.855 4.281,-1.279 8.28,-1.279 l 5.708,0.855 c 3.808,0.76 8.516,3.042 14.134,6.851 5.614,3.806 10.229,8.754 13.846,14.843 4.38,7.806 9.657,13.75 15.846,17.843 6.184,4.097 12.419,6.143 18.699,6.143 6.28,0 11.704,-0.476 16.274,-1.424 4.565,-0.954 8.848,-2.385 12.847,-4.288 1.713,-12.751 6.377,-22.559 13.988,-29.41 -10.848,-1.143 -20.602,-2.854 -29.265,-5.14 -8.658,-2.286 -17.605,-5.995 -26.835,-11.136 -9.234,-5.14 -16.894,-11.512 -22.985,-19.13 -6.09,-7.618 -11.088,-17.61 -14.987,-29.978 -3.901,-12.375 -5.852,-26.652 -5.852,-42.829 0,-23.029 7.521,-42.637 22.557,-58.814 -7.044,-17.32 -6.379,-36.732 1.997,-58.242 5.52,-1.714 13.706,-0.428 24.554,3.855 10.85,4.286 18.794,7.951 23.84,10.992 5.046,3.042 9.089,5.614 12.135,7.71 17.705,-4.949 35.976,-7.423 54.818,-7.423 18.841,0 37.115,2.474 54.821,7.423 l 10.849,-6.852 c 7.426,-4.57 16.18,-8.757 26.269,-12.562 10.088,-3.806 17.795,-4.854 23.127,-3.14 8.562,21.51 9.328,40.922 2.279,58.241 15.036,16.179 22.559,35.786 22.559,58.815 0,16.18 -1.951,30.505 -5.852,42.969 -3.898,12.467 -8.939,22.463 -15.13,29.981 -6.184,7.519 -13.894,13.843 -23.124,18.986 -9.232,5.137 -18.178,8.853 -26.84,11.132 -8.661,2.286 -18.414,4.004 -29.263,5.147 9.891,8.562 14.839,22.072 14.839,40.538 v 68.238 c 0,3.237 0.472,5.852 1.424,7.851 0.958,1.998 2.478,3.374 4.571,4.141 2.102,0.76 3.949,1.235 5.571,1.424 1.622,0.191 3.949,0.287 6.995,0.287 h 63.953 c 22.648,0 42.018,-8.042 58.095,-24.126 16.084,-16.084 24.126,-35.454 24.126,-58.102 V 82.225 C 438.533,59.576 430.491,40.204 414.41,24.123 Z"
             inkscape:connector-curvature="0"
             style="fill:url(#linearGradient8447);fill-opacity:1" />
          <path
             id="path1388"
             d="m 86.793,319.195 c -1.331,0.948 -1.141,2.471 0.572,4.565 1.906,1.902 3.427,2.189 4.57,0.855 1.331,-0.948 1.141,-2.471 -0.575,-4.569 -1.902,-1.71 -3.424,-1.997 -4.567,-0.851 z"
             inkscape:connector-curvature="0"
             style="fill:url(#linearGradient8449);fill-opacity:1" />
          <path
             id="path1390"
             d="m 77.374,312.057 c -0.57,1.335 0.096,2.478 1.999,3.426 1.521,0.955 2.762,0.767 3.711,-0.568 0.57,-1.335 -0.096,-2.478 -1.999,-3.433 -1.903,-0.572 -3.14,-0.38 -3.711,0.575 z"
             inkscape:connector-curvature="0"
             style="fill:url(#linearGradient8451);fill-opacity:1" />
          <path
             id="path1392"
             d="m 95.646,330.331 c -1.715,0.948 -1.715,2.666 0,5.137 1.713,2.478 3.328,3.142 4.853,1.998 1.714,-1.334 1.714,-3.142 0,-5.427 -1.521,-2.468 -3.14,-3.046 -4.853,-1.708 z"
             inkscape:connector-curvature="0"
             style="fill:url(#linearGradient8453);fill-opacity:1" />
          <path
             id="path1394"
             d="m 105.641,343.174 c -1.714,1.526 -1.336,3.327 1.142,5.428 2.281,2.279 4.185,2.566 5.708,0.849 1.524,-1.519 1.143,-3.326 -1.142,-5.42 -2.281,-2.28 -4.185,-2.568 -5.708,-0.857 z"
             inkscape:connector-curvature="0"
             style="fill:url(#linearGradient8455);fill-opacity:1" />
        </g>
      </g>
      <g
         id="g1400"
         style="fill:url(#linearGradient8461);fill-opacity:1" />
      <g
         id="g1402"
         style="fill:url(#linearGradient8463);fill-opacity:1" />
      <g
         id="g1404"
         style="fill:url(#linearGradient8465);fill-opacity:1" />
      <g
         id="g1406"
         style="fill:url(#linearGradient8467);fill-opacity:1" />
      <g
         id="g1408"
         style="fill:url(#linearGradient8469);fill-opacity:1" />
      <g
         id="g1410"
         style="fill:url(#linearGradient8471);fill-opacity:1" />
      <g
         id="g1412"
         style="fill:url(#linearGradient8473);fill-opacity:1" />
      <g
         id="g1414"
         style="fill:url(#linearGradient8475);fill-opacity:1" />
      <g
         id="g1416"
         style="fill:url(#linearGradient8477);fill-opacity:1" />
      <g
         id="g1418"
         style="fill:url(#linearGradient8479);fill-opacity:1" />
      <g
         id="g1420"
         style="fill:url(#linearGradient8481);fill-opacity:1" />
      <g
         id="g1422"
         style="fill:url(#linearGradient8483);fill-opacity:1" />
      <g
         id="g1424"
         style="fill:url(#linearGradient8485);fill-opacity:1" />
      <g
         id="g1426"
         style="fill:url(#linearGradient8487);fill-opacity:1" />
      <g
         id="g1428"
         style="fill:url(#linearGradient8489);fill-opacity:1" />
    </g>
  </g>
</svg>
