<?xml version="1.0" encoding="UTF-8" standalone="no"?>
<!-- Created with Inkscape (http://www.inkscape.org/) -->

<svg
   xmlns:dc="http://purl.org/dc/elements/1.1/"
   xmlns:cc="http://creativecommons.org/ns#"
   xmlns:rdf="http://www.w3.org/1999/02/22-rdf-syntax-ns#"
   xmlns:svg="http://www.w3.org/2000/svg"
   xmlns="http://www.w3.org/2000/svg"
   xmlns:xlink="http://www.w3.org/1999/xlink"
   xmlns:sodipodi="http://sodipodi.sourceforge.net/DTD/sodipodi-0.dtd"
   xmlns:inkscape="http://www.inkscape.org/namespaces/inkscape"
   width="80mm"
   height="80mm"
   viewBox="0 0 80 80"
   version="1.1"
   id="svg5960"
   inkscape:version="0.92.2 (5c3e80d, 2017-08-06)"
   sodipodi:docname="linkedin.svg">
  <defs
     id="defs5954">
    <linearGradient
       inkscape:collect="always"
       xlink:href="#linearGradient4857"
       id="linearGradient4859"
       x1="69.043648"
       y1="256.43057"
       x2="-5.7956352"
       y2="257.43851"
       gradientUnits="userSpaceOnUse"
       gradientTransform="matrix(3.8244964,0,0,3.8289574,-1.7987525,-832.861)" />
    <linearGradient
       inkscape:collect="always"
       id="linearGradient4857">
      <stop
         style="stop-color:#3a589e;stop-opacity:1"
         offset="0"
         id="stop4853" />
      <stop
         style="stop-color:#8e8e8e;stop-opacity:1"
         offset="1"
         id="stop4855" />
    </linearGradient>
  </defs>
  <sodipodi:namedview
     id="base"
     pagecolor="#ffffff"
     bordercolor="#666666"
     borderopacity="1.0"
     inkscape:pageopacity="0.0"
     inkscape:pageshadow="2"
     inkscape:zoom="1.575"
     inkscape:cx="134.05702"
     inkscape:cy="174.52333"
     inkscape:document-units="mm"
     inkscape:current-layer="layer1"
     showgrid="false"
     inkscape:showpageshadow="false"
     inkscape:window-width="1920"
     inkscape:window-height="1001"
     inkscape:window-x="-9"
     inkscape:window-y="-9"
     inkscape:window-maximized="1" />
  <metadata
     id="metadata5957">
    <rdf:RDF>
      <cc:Work
         rdf:about="">
        <dc:format>image/svg+xml</dc:format>
        <dc:type
           rdf:resource="http://purl.org/dc/dcmitype/StillImage" />
        <dc:title />
      </cc:Work>
    </rdf:RDF>
  </metadata>
  <g
     inkscape:label="Layer 1"
     inkscape:groupmode="layer"
     id="layer1"
     transform="translate(0,-217)">
    <path
       style="opacity:1;fill:url(#linearGradient4859);fill-opacity:1;stroke:none;stroke-width:0;stroke-linecap:round;stroke-linejoin:round;stroke-miterlimit:4;stroke-dasharray:none;stroke-opacity:1;paint-order:fill markers stroke"
       d="M 68.390625 30.236328 C 46.750581 30.236328 29.330078 50.463582 29.330078 75.589844 L 29.330078 226.77148 C 29.330078 251.89771 46.750581 272.125 68.390625 272.125 L 233.9707 272.125 C 255.61078 272.125 273.0332 251.89771 273.0332 226.77148 L 273.0332 75.589844 C 273.0332 50.46362 255.61078 30.236328 233.9707 30.236328 L 68.390625 30.236328 z M 78.332031 59.160156 C 92.443891 59.160156 101.1176 68.426018 101.38867 80.611328 C 101.38867 92.532941 92.444348 102.07812 78.060547 102.07812 L 77.783203 102.07812 C 63.953126 102.07812 54.992188 92.531164 54.992188 80.611328 C 54.992187 68.426018 64.221517 59.160156 78.332031 59.160156 z M 199.88867 116.10352 C 227.02597 116.1031 247.37109 133.85219 247.37109 171.99609 L 247.37109 243.20312 L 206.13672 243.20312 L 206.13672 176.76562 C 206.13672 160.07591 200.17305 148.68555 185.24805 148.68555 C 173.85471 148.68555 167.07465 156.36177 164.0918 163.78711 C 163.00403 166.44162 162.72461 170.13576 162.72461 173.85156 L 162.72461 243.20312 L 121.47852 243.20312 C 121.47852 243.20312 122.03403 130.67978 121.47852 119.02148 L 162.7207 119.02148 L 162.7207 136.62305 C 168.20022 128.17361 177.9849 116.10352 199.88867 116.10352 z M 162.7207 136.62305 C 162.63706 136.75457 162.52795 136.89783 162.44922 137.02539 L 162.7207 137.02539 L 162.7207 136.62305 z M 57.441406 119.02148 L 98.671875 119.02148 L 98.671875 243.20312 L 57.441406 243.20312 L 57.441406 119.02148 z "
       transform="matrix(0.26458333,0,0,0.26458333,0,217)"
       id="rect1715" />
    <g
       style="fill:#ffffff;fill-opacity:1"
       id="g6587"
       transform="matrix(0.11694908,0,0,0.11694908,14.849106,231.84905)" />
    <g
       style="fill:#ffffff;fill-opacity:1"
       id="g6589"
       transform="matrix(0.11694908,0,0,0.11694908,14.849106,231.84905)" />
    <g
       style="fill:#ffffff;fill-opacity:1"
       id="g6591"
       transform="matrix(0.11694908,0,0,0.11694908,14.849106,231.84905)" />
    <g
       style="fill:#ffffff;fill-opacity:1"
       id="g6593"
       transform="matrix(0.11694908,0,0,0.11694908,14.849106,231.84905)" />
    <g
       style="fill:#ffffff;fill-opacity:1"
       id="g6595"
       transform="matrix(0.11694908,0,0,0.11694908,14.849106,231.84905)" />
    <g
       style="fill:#ffffff;fill-opacity:1"
       id="g6597"
       transform="matrix(0.11694908,0,0,0.11694908,14.849106,231.84905)" />
    <g
       style="fill:#ffffff;fill-opacity:1"
       id="g6599"
       transform="matrix(0.11694908,0,0,0.11694908,14.849106,231.84905)" />
    <g
       style="fill:#ffffff;fill-opacity:1"
       id="g6601"
       transform="matrix(0.11694908,0,0,0.11694908,14.849106,231.84905)" />
    <g
       style="fill:#ffffff;fill-opacity:1"
       id="g6603"
       transform="matrix(0.11694908,0,0,0.11694908,14.849106,231.84905)" />
    <g
       style="fill:#ffffff;fill-opacity:1"
       id="g6605"
       transform="matrix(0.11694908,0,0,0.11694908,14.849106,231.84905)" />
    <g
       style="fill:#ffffff;fill-opacity:1"
       id="g6607"
       transform="matrix(0.11694908,0,0,0.11694908,14.849106,231.84905)" />
    <g
       style="fill:#ffffff;fill-opacity:1"
       id="g6609"
       transform="matrix(0.11694908,0,0,0.11694908,14.849106,231.84905)" />
    <g
       style="fill:#ffffff;fill-opacity:1"
       id="g6611"
       transform="matrix(0.11694908,0,0,0.11694908,14.849106,231.84905)" />
    <g
       style="fill:#ffffff;fill-opacity:1"
       id="g6613"
       transform="matrix(0.11694908,0,0,0.11694908,14.849106,231.84905)" />
    <g
       style="fill:#ffffff;fill-opacity:1"
       id="g6615"
       transform="matrix(0.11694908,0,0,0.11694908,14.849106,231.84905)" />
  </g>
</svg>
