<?xml version="1.0" encoding="UTF-8" standalone="no"?>
<!-- Created with Inkscape (http://www.inkscape.org/) -->

<svg
   xmlns:dc="http://purl.org/dc/elements/1.1/"
   xmlns:cc="http://creativecommons.org/ns#"
   xmlns:rdf="http://www.w3.org/1999/02/22-rdf-syntax-ns#"
   xmlns:svg="http://www.w3.org/2000/svg"
   xmlns="http://www.w3.org/2000/svg"
   xmlns:xlink="http://www.w3.org/1999/xlink"
   xmlns:sodipodi="http://sodipodi.sourceforge.net/DTD/sodipodi-0.dtd"
   xmlns:inkscape="http://www.inkscape.org/namespaces/inkscape"
   width="177mm"
   height="200mm"
   viewBox="0 0 177 200"
   version="1.1"
   id="svg8"
   inkscape:version="0.92.2 (5c3e80d, 2017-08-06)"
   sodipodi:docname="mylogo_tst5.svg">
  <defs
     id="defs2">
    <linearGradient
       id="linearGradient1806"
       inkscape:collect="always">
      <stop
         id="stop1802"
         offset="0"
         style="stop-color:#09effa;stop-opacity:0.49350649" />
      <stop
         id="stop1804"
         offset="1"
         style="stop-color:#05f2d8;stop-opacity:0.497" />
    </linearGradient>
    <linearGradient
       id="linearGradient1796"
       inkscape:collect="always">
      <stop
         id="stop1792"
         offset="0"
         style="stop-color:#079fe1;stop-opacity:1" />
      <stop
         id="stop1794"
         offset="1"
         style="stop-color:#06dccd;stop-opacity:1" />
    </linearGradient>
    <linearGradient
       id="linearGradient1633"
       inkscape:collect="always">
      <stop
         id="stop1629"
         offset="0"
         style="stop-color:#099ffa;stop-opacity:0.442" />
      <stop
         id="stop1631"
         offset="1"
         style="stop-color:#05f2d8;stop-opacity:0.562" />
    </linearGradient>
    <linearGradient
       id="linearGradient1594"
       inkscape:collect="always">
      <stop
         id="stop1590"
         offset="0"
         style="stop-color:#0497bd;stop-opacity:1" />
      <stop
         id="stop1592"
         offset="1"
         style="stop-color:#06dccd;stop-opacity:1" />
    </linearGradient>
    <linearGradient
       id="linearGradient1565"
       inkscape:collect="always">
      <stop
         id="stop1561"
         offset="0"
         style="stop-color:#099ffa;stop-opacity:1" />
      <stop
         id="stop1563"
         offset="1"
         style="stop-color:#66f2d8;stop-opacity:0.58441558" />
    </linearGradient>
    <linearGradient
       inkscape:collect="always"
       id="linearGradient1550">
      <stop
         style="stop-color:#099ffa;stop-opacity:1"
         offset="0"
         id="stop1546" />
      <stop
         style="stop-color:#05f2d8;stop-opacity:0.834"
         offset="1"
         id="stop1548" />
    </linearGradient>
    <linearGradient
       inkscape:collect="always"
       xlink:href="#linearGradient1550"
       id="linearGradient1552"
       x1="137.5799"
       y1="123.21442"
       x2="46.301613"
       y2="43.150635"
       gradientUnits="userSpaceOnUse"
       gradientTransform="matrix(3.7795276,0,0,3.7795276,-20.142495,88.713898)" />
    <linearGradient
       inkscape:collect="always"
       xlink:href="#linearGradient1565"
       id="linearGradient1558"
       gradientUnits="userSpaceOnUse"
       x1="99.983978"
       y1="132.12341"
       x2="105.67868"
       y2="112.81349"
       gradientTransform="matrix(3.7795276,0,0,3.7795276,-20.142495,88.713898)" />
    <linearGradient
       inkscape:collect="always"
       xlink:href="#linearGradient1594"
       id="linearGradient1587"
       gradientUnits="userSpaceOnUse"
       x1="105.32937"
       y1="147.80322"
       x2="43.857765"
       y2="40.553329"
       gradientTransform="matrix(3.7795276,0,0,3.7795276,-20.142495,88.713898)" />
    <linearGradient
       inkscape:collect="always"
       xlink:href="#linearGradient1796"
       id="linearGradient1600"
       gradientUnits="userSpaceOnUse"
       x1="176.1369"
       y1="133.44012"
       x2="52.016022"
       y2="42.955822"
       gradientTransform="matrix(3.7795276,0,0,3.7795276,-21.094869,88.7139)" />
    <linearGradient
       inkscape:collect="always"
       xlink:href="#linearGradient1633"
       id="linearGradient1615"
       gradientUnits="userSpaceOnUse"
       x1="43.829346"
       y1="112.46987"
       x2="164.89496"
       y2="52.84127"
       gradientTransform="matrix(3.7795276,0,0,3.7795276,-20.142495,88.713897)" />
    <linearGradient
       inkscape:collect="always"
       xlink:href="#linearGradient1806"
       id="linearGradient1800"
       gradientUnits="userSpaceOnUse"
       gradientTransform="matrix(3.7795276,0,0,-3.7795276,-20.142495,667.05632)"
       x1="104.04092"
       y1="106.91952"
       x2="105.07748"
       y2="147.76765" />
  </defs>
  <sodipodi:namedview
     id="base"
     pagecolor="#ffffff"
     bordercolor="#666666"
     borderopacity="1.0"
     inkscape:pageopacity="0.0"
     inkscape:pageshadow="2"
     inkscape:zoom="0.7875"
     inkscape:cx="747.13915"
     inkscape:cy="326.79887"
     inkscape:document-units="mm"
     inkscape:current-layer="layer1"
     showgrid="false"
     inkscape:showpageshadow="false"
     inkscape:window-width="1920"
     inkscape:window-height="1001"
     inkscape:window-x="-9"
     inkscape:window-y="-9"
     inkscape:window-maximized="1" />
  <metadata
     id="metadata5">
    <rdf:RDF>
      <cc:Work
         rdf:about="">
        <dc:format>image/svg+xml</dc:format>
        <dc:type
           rdf:resource="http://purl.org/dc/dcmitype/StillImage" />
        <dc:title></dc:title>
      </cc:Work>
    </rdf:RDF>
  </metadata>
  <g
     inkscape:label="Layer 1"
     inkscape:groupmode="layer"
     id="layer1"
     transform="translate(0,-97)">
    <g
       id="g2055"
       transform="matrix(1.3865503,0,0,1.3865503,-50.155164,-76.125464)">
      <path
         id="path817"
         transform="matrix(0.26458333,0,0,0.26458333,0,97)"
         d="m 377.95312,108.56445 c -18.85708,0 -223.86831,118.36457 -233.29687,134.69532 -9.42856,16.33074 -9.42856,253.05597 0,269.38671 9.42856,16.33075 214.43979,134.69336 233.29687,134.69336 18.85713,0 223.86832,-118.36261 233.29688,-134.69336 9.42856,-16.33074 9.42856,-253.05597 0,-269.38671 C 601.82144,226.92902 396.81025,108.56445 377.95312,108.56445 Z m -2.85742,1.02735 229.64453,397.75586 H 421.96094 l -48.29492,83.64843 -0.10352,-0.17773 -0.10156,0.17773 -48.29297,-83.64843 h -179.7168 z m -1.13086,97.02148 42.31836,258.63477 h 107.00586 z m -0.81054,0.0625 -149.28711,258.57227 H 330.8457 Z"
         style="fill:url(#linearGradient1552);fill-opacity:1;fill-rule:evenodd;stroke-width:0.99999994"
         inkscape:connector-curvature="0" />
      <path
         id="path1596"
         transform="matrix(0.26458333,0,0,0.26458333,0,97)"
         d="m 377,108.56445 c -18.85712,0 -223.86831,118.36458 -233.29688,134.69532 -0.15565,0.26948 -0.30845,0.60632 -0.45898,0.99414 l 116.20313,65.64648 115.64843,-200.30859 227.60938,394.23242 4.79297,2.70703 c 1.69617,0.95826 2.93493,2.33272 3.66797,3.90039 8.54906,-28.93867 8.25987,-251.35988 -0.86914,-267.17187 C 600.86831,226.92903 395.85712,108.56445 377,108.56445 Z m -3.03516,98.04883 30.28516,185.09375 113.64844,64.20508 z m -0.8125,0.0664 -72.90234,126.27148 47.82227,27.01758 z"
         style="opacity:0.64600004;fill:url(#linearGradient1600);fill-opacity:1;fill-rule:evenodd;stroke-width:0.99999994"
         inkscape:connector-curvature="0" />
      <path
         id="path1567"
         transform="matrix(0.26458333,0,0,0.26458333,0,97)"
         d="m 145.61914,241.98633 c -0.40592,0.46833 -0.75071,0.90594 -0.96289,1.27344 -9.42856,16.33074 -9.42856,253.05597 0,269.38671 9.42856,16.33075 214.43979,134.69336 233.29687,134.69336 0.36867,0 0.83173,-0.0616 1.33985,-0.15039 L 298.55469,507.34766 H 145.45117 l 76.55274,-132.5918 -75.54883,-130.85352 c -0.35727,-0.61881 -0.63122,-1.26263 -0.83594,-1.91601 z m 103.43945,179.63086 -25.1914,43.63086 H 274.25 Z"
         style="fill:url(#linearGradient1587);fill-opacity:1;fill-rule:evenodd;stroke-width:0.99999994"
         inkscape:connector-curvature="0" />
      <path
         id="path1554"
         transform="matrix(0.26458333,0,0,0.26458333,0,97)"
         d="m 144.02539,511.14453 c 0.20598,0.59966 0.41499,1.12806 0.63086,1.50195 9.42856,16.33075 214.43979,134.69336 233.29687,134.69336 18.85713,0 223.86832,-118.36261 233.29688,-134.69336 0.2159,-0.37395 0.42484,-0.90215 0.63086,-1.50195 H 419.76758 l -46.10156,79.85156 -0.10352,-0.17773 -0.10156,0.17773 -46.09961,-79.85156 z"
         style="opacity:0.58399999;fill:url(#linearGradient1558);fill-opacity:1;fill-rule:evenodd;stroke-width:0.99999994"
         inkscape:connector-curvature="0" />
      <path
         id="path1613"
         transform="matrix(0.26458333,0,0,0.26458333,0,97)"
         d="m 607.94141,239.65039 -118.31641,68.31055 47.2793,81.89062 81.38476,-24.41797 c -0.29088,-58.85966 -2.63624,-114.54792 -7.03906,-122.17382 -0.51954,-0.89987 -1.66524,-2.12679 -3.30859,-3.60938 z m -161.17579,93.05469 -47.66601,27.51953 11.06836,67.65039 78.02734,-23.41016 z m -104.0625,60.08008 -115.5,66.68359 -3.33593,5.7793 h 61.73242 l 47.58203,-14.27539 z m -196.66406,113.54296 -2.85351,1.64844 c 0.46233,2.16495 0.95109,3.76993 1.4707,4.66992 0.19383,0.33573 0.49964,0.73034 0.85547,1.1504 0.12598,-2.47493 1.23008,-4.79148 3.03711,-6.44922 h -3.09766 z"
         style="fill:url(#linearGradient1615);fill-opacity:1;fill-rule:evenodd;stroke-width:0.99999994"
         inkscape:connector-curvature="0" />
      <path
         id="path1798"
         transform="matrix(0.26458333,0,0,0.26458333,0,97)"
         d="m 377.95312,108.42969 c -18.85712,0 -223.86831,118.36262 -233.29687,134.69336 -0.21587,0.37391 -0.42488,0.90229 -0.63086,1.50195 H 297.13477 L 375.0957,109.5918 453.05664,244.625 h 158.82422 c -0.20602,-0.59977 -0.41505,-1.12816 -0.63086,-1.50195 C 601.82144,226.79231 396.81025,108.42969 377.95312,108.42969 Z m -3.98828,98.18359 6.21875,38.01172 h 15.72852 z m -0.81054,0.0625 -21.91016,37.94922 h 15.70117 z"
         style="opacity:0.494;fill:url(#linearGradient1800);fill-opacity:1;fill-rule:evenodd;stroke-width:0.99999994"
         inkscape:connector-curvature="0" />
    </g>
  </g>
</svg>
